<?xml version="1.0" standalone="no"?>
<!DOCTYPE svg PUBLIC "-//W3C//DTD SVG 20010904//EN"
 "http://www.w3.org/TR/2001/REC-SVG-20010904/DTD/svg10.dtd">
<svg version="1.0" xmlns="http://www.w3.org/2000/svg"
 width="200.000000pt" height="200.000000pt" viewBox="0 0 200.000000 200.000000"
 preserveAspectRatio="xMidYMid meet">
<metadata>
Created by potrace 1.11, written by Peter Selinger 2001-2013
</metadata>
<g transform="translate(0.000000,200.000000) scale(0.100000,-0.100000)"
fill="#000000" stroke="none">
<path d="M811 1955 c-152 -34 -275 -91 -399 -184 -174 -132 -298 -325 -354
-551 -28 -114 -30 -311 -4 -425 81 -358 344 -634 701 -737 109 -31 362 -33
470 -4 344 93 599 341 701 681 32 111 44 302 24 423 -59 366 -337 676 -701
783 -97 28 -341 36 -438 14z m428 -55 c327 -94 571 -347 653 -676 31 -125 31
-313 0 -439 -29 -115 -105 -270 -177 -360 -274 -342 -751 -444 -1139 -242
-211 109 -370 295 -444 519 -43 129 -56 222 -49 353 22 424 313 764 738 860
94 22 320 13 418 -15z m-589 -20 c-8 -5 -19 -10 -25 -10 -5 0 -3 5 5 10 8 5
20 10 25 10 6 0 3 -5 -5 -10z m770 -25 c28 -14 50 -28 50 -30 0 -5 -99 42
-109 51 -12 11 15 1 59 -21z m-870 -19 c0 -1 -22 -17 -50 -34 -27 -17 -50 -29
-50 -26 0 4 90 64 97 64 2 0 3 -2 3 -4z m1003 -65 c7 -8 -7 -2 -30 14 -24 15
-43 30 -43 32 0 7 61 -31 73 -46z m-1176 -62 c-37 -33 -88 -88 -114 -122 -51
-68 -71 -91 -58 -67 34 61 210 250 234 250 3 0 -25 -27 -62 -61z m1313 -56 c0
-3 -27 18 -60 47 -33 29 -60 54 -60 57 0 3 27 -18 60 -47 33 -29 60 -54 60
-57z m30 -38 c13 -14 21 -25 18 -25 -2 0 -15 11 -28 25 -13 14 -21 25 -18 25
2 0 15 -11 28 -25z m41 -52 c13 -16 12 -17 -3 -4 -10 7 -18 15 -18 17 0 8 8 3
21 -13z m49 -73 c6 -11 8 -20 6 -20 -3 0 -10 9 -16 20 -6 11 -8 20 -6 20 3 0
10 -9 16 -20z m-1653 -79 c-23 -49 -44 -87 -46 -85 -5 4 76 174 83 174 2 0
-14 -40 -37 -89z m1723 -66 c0 -5 -5 -3 -10 5 -5 8 -10 20 -10 25 0 6 5 3 10
-5 5 -8 10 -19 10 -25z m-1794 -131 c-8 -32 -15 -51 -15 -41 -1 22 20 109 25
104 3 -2 -2 -30 -10 -63z m1821 34 c-3 -8 -6 -5 -6 6 -1 11 2 17 5 13 3 -3 4
-12 1 -19z m10 -40 c-3 -8 -6 -5 -6 6 -1 11 2 17 5 13 3 -3 4 -12 1 -19z m10
-55 c-3 -10 -5 -4 -5 12 0 17 2 24 5 18 2 -7 2 -21 0 -30z m-1860 -55 c-2 -13
-4 -5 -4 17 -1 22 1 32 4 23 2 -10 2 -28 0 -40z m1870 -160 c-2 -35 -3 -7 -3
62 0 69 1 97 3 63 2 -35 2 -91 0 -125z m-1880 30 c-2 -18 -4 -4 -4 32 0 36 2
50 4 33 2 -18 2 -48 0 -65z m38 -210 c83 -320 346 -581 675 -670 72 -19 109
-23 235 -22 133 1 160 4 240 28 293 88 509 283 622 559 18 45 33 75 33 67 0
-23 -62 -159 -104 -228 -48 -79 -172 -211 -251 -267 -144 -103 -317 -163 -496
-172 -380 -20 -725 181 -894 522 -47 95 -96 263 -94 324 1 28 3 24 10 -21 4
-31 15 -85 24 -120z m1832 75 c-3 -10 -5 -4 -5 12 0 17 2 24 5 18 2 -7 2 -21
0 -30z m-12 -63 c-9 -41 -17 -33 -9 9 4 17 9 30 11 27 3 -2 2 -19 -2 -36z"/>
<path d="M967 1883 l-14 -27 -12 22 c-18 34 -31 26 -31 -18 0 -23 5 -40 11
-40 7 0 9 9 6 23 -6 21 -5 21 8 3 16 -21 17 -21 33 9 11 19 11 19 12 -2 0 -18
6 -23 25 -23 14 0 25 4 25 9 0 5 3 18 6 28 4 13 0 11 -15 -7 l-21 -25 0 38 c0
44 -14 48 -33 10z"/>
<path d="M817 1892 c-24 -3 -28 -7 -23 -25 3 -12 6 -30 6 -39 0 -10 6 -18 14
-18 11 0 13 9 9 35 -5 29 -3 35 12 35 14 0 15 -3 6 -14 -9 -10 -8 -15 4 -20
11 -4 15 1 15 19 0 28 -6 32 -43 27z"/>
<path d="M1040 1896 c0 -2 7 -20 15 -40 19 -44 51 -50 61 -10 l7 26 20 -32 21
-33 12 34 c16 43 16 49 4 49 -5 0 -10 -10 -10 -22 -1 -22 -1 -22 -23 5 -13 15
-26 27 -29 27 -4 0 -10 -17 -14 -37 l-7 -36 -19 36 c-10 20 -23 37 -28 37 -6
0 -10 -2 -10 -4z"/>
<path d="M712 1858 c-18 -18 -15 -43 8 -63 18 -17 21 -17 45 -1 40 27 28 76
-20 76 -12 0 -26 -5 -33 -12z m48 -13 c15 -18 6 -45 -14 -45 -16 0 -31 34 -21
50 9 14 21 12 35 -5z"/>
<path d="M1224 1854 c3 -9 6 -27 6 -40 0 -15 6 -24 16 -24 12 0 15 6 10 23 -3
12 -6 30 -6 40 0 9 -7 17 -16 17 -11 0 -14 -5 -10 -16z"/>
<path d="M1192 1830 c-18 -29 -15 -36 8 -15 20 18 26 35 12 35 -4 0 -13 -9
-20 -20z"/>
<path d="M1286 1834 c-9 -8 -16 -22 -16 -29 0 -37 62 -60 74 -29 9 24 -2 31
-17 10 -11 -15 -15 -16 -25 -3 -7 8 -10 22 -6 31 7 19 40 22 47 4 2 -7 8 -9
13 -5 10 9 -22 37 -42 37 -7 0 -20 -7 -28 -16z"/>
<path d="M605 1818 c-11 -6 -22 -14 -25 -18 -3 -3 -18 -12 -35 -19 -16 -6 -38
-18 -48 -26 -18 -13 -18 -15 -1 -40 13 -19 14 -29 6 -37 -9 -9 -18 -6 -38 13
-18 16 -28 20 -31 12 -3 -7 -9 -13 -14 -13 -16 0 -64 -49 -55 -57 4 -4 11 -1
16 7 7 12 13 10 34 -9 32 -31 47 -19 17 13 -18 19 -19 25 -8 34 11 9 18 7 32
-8 23 -25 37 -25 59 -1 16 17 16 22 3 43 -13 20 -13 25 -1 36 12 11 17 7 33
-18 11 -19 22 -27 25 -21 4 6 0 21 -8 33 -9 12 -16 25 -16 28 0 7 40 8 40 0 0
-3 7 -14 15 -24 13 -18 16 -18 40 -2 14 9 25 22 25 28 0 6 -9 3 -20 -7 -11
-10 -21 -16 -23 -14 -28 48 -28 50 -8 56 12 3 21 9 21 14 0 12 -11 11 -35 -3z"/>
<path d="M1365 1790 c-21 -40 -20 -44 21 -64 35 -16 37 -16 50 1 13 16 14 15
8 -11 -6 -26 -5 -27 13 -18 15 8 18 19 15 46 -2 20 -6 36 -9 36 -2 0 -14 -11
-26 -24 -18 -20 -27 -23 -44 -16 -20 8 -22 12 -11 35 12 26 28 29 36 5 3 -9
-1 -11 -11 -7 -11 4 -14 2 -10 -9 7 -18 11 -18 31 2 15 15 14 18 -7 35 -31 25
-38 24 -56 -11z"/>
<path d="M625 1790 c-3 -5 1 -10 9 -10 9 0 16 5 16 10 0 6 -4 10 -9 10 -6 0
-13 -4 -16 -10z"/>
<path d="M808 1780 c-289 -71 -513 -294 -588 -585 -29 -109 -29 -280 -1 -387
36 -140 112 -270 218 -375 170 -167 425 -255 649 -224 338 47 599 274 685 597
16 58 21 109 22 194 0 145 -18 224 -83 356 -105 217 -314 379 -552 429 -96 21
-255 18 -350 -5z m368 -40 c136 -34 236 -91 339 -195 101 -101 152 -181 192
-300 25 -73 27 -94 28 -235 0 -144 -2 -161 -28 -235 -83 -236 -264 -411 -502
-485 -252 -77 -553 -1 -742 187 -189 190 -266 473 -198 728 39 146 135 294
250 388 74 61 219 132 305 151 100 22 262 20 356 -4z m174 -35 c17 -9 30 -18
30 -21 0 -4 -59 23 -69 32 -10 9 13 3 39 -11z m191 -145 c134 -133 207 -279
231 -467 20 -154 -22 -351 -103 -491 -44 -74 -198 -227 -272 -271 -83 -49
-203 -89 -308 -103 -161 -21 -353 19 -495 103 -82 49 -197 160 -254 247 -56
85 -107 216 -114 294 -6 53 -6 53 8 -12 36 -164 93 -268 216 -390 151 -152
299 -218 510 -227 95 -4 130 -2 202 16 283 67 506 282 579 558 29 107 29 278
1 384 -47 177 -169 350 -310 444 -50 33 -56 44 -10 18 18 -10 71 -56 119 -103z
m-991 86 c0 -2 -8 -10 -17 -17 -16 -13 -17 -12 -4 4 13 16 21 21 21 13z m-40
-29 c0 -1 -30 -32 -67 -67 l-68 -65 65 68 c60 62 70 72 70 64z m-130 -141 c0
-2 -8 -10 -17 -17 -16 -13 -17 -12 -4 4 13 16 21 21 21 13z m-143 -308 c-3 -8
-6 -5 -6 6 -1 11 2 17 5 13 3 -3 4 -12 1 -19z m-10 -55 c-3 -10 -5 -4 -5 12 0
17 2 24 5 18 2 -7 2 -21 0 -30z m-10 -145 c-2 -24 -4 -7 -4 37 0 44 2 63 4 43
2 -21 2 -57 0 -80z"/>
<path d="M960 1720 c-22 -41 12 -81 51 -60 19 11 23 22 19 50 -5 34 -54 41
-70 10z"/>
<path d="M1076 1699 c-9 -47 -7 -56 9 -36 13 18 14 18 25 -2 14 -27 40 -27 47
-1 3 11 9 20 14 20 5 0 7 -11 3 -25 -5 -20 -3 -24 10 -19 9 3 16 1 16 -6 0
-22 45 -6 48 18 4 26 -21 40 -42 23 -11 -9 -14 -8 -12 6 0 11 -7 19 -20 21
-16 2 -24 -4 -31 -25 -10 -28 -10 -28 -17 -5 -6 16 -3 29 10 43 19 21 13 24
-17 9 -13 -7 -19 -7 -19 0 0 23 -18 8 -24 -21z m154 -51 c0 -16 -3 -19 -11
-11 -6 6 -8 16 -5 22 11 17 16 13 16 -11z"/>
<path d="M873 1686 c3 -8 2 -18 -2 -21 -5 -3 -12 2 -15 10 -4 11 -15 14 -33
11 -16 -2 -31 -5 -35 -5 -5 -1 -8 -8 -8 -17 0 -13 -3 -14 -15 -4 -8 6 -19 9
-25 5 -5 -3 -10 -1 -10 4 0 6 -5 11 -11 11 -6 0 -8 -7 -5 -15 19 -47 20 -51 5
-32 -13 17 -16 17 -47 2 -17 -9 -32 -22 -32 -28 1 -18 29 -52 36 -44 4 4 1 13
-6 22 -7 9 -10 18 -6 22 3 4 12 -2 20 -12 12 -17 17 -18 41 -7 21 10 26 18 22
37 -2 14 0 25 4 25 5 0 9 -3 9 -7 1 -19 18 -33 33 -27 12 4 15 14 12 33 -5 25
-5 25 6 4 7 -13 16 -23 21 -23 5 0 7 10 4 23 l-6 22 12 -23 c7 -13 17 -21 26
-17 7 3 23 5 33 5 32 0 22 54 -10 58 -18 3 -22 0 -18 -12z"/>
<path d="M1259 1645 c-1 -8 -2 -19 -3 -25 -1 -5 3 -10 8 -9 5 0 12 -5 17 -12
6 -10 12 -9 28 5 25 23 28 44 4 25 -15 -12 -16 -12 -10 5 6 14 4 17 -8 12 -8
-3 -15 -1 -15 4 0 16 -20 11 -21 -5z"/>
<path d="M1331 1617 c-23 -37 -25 -47 -13 -47 10 0 47 69 40 76 -3 3 -15 -10
-27 -29z"/>
<path d="M586 1607 c-17 -12 -17 -14 1 -45 20 -35 34 -40 54 -16 10 13 10 20
-3 42 -20 33 -29 36 -52 19z m24 -17 c0 -5 -5 -10 -11 -10 -5 0 -7 5 -4 10 3
6 8 10 11 10 2 0 4 -4 4 -10z m20 -30 c0 -5 -4 -10 -10 -10 -5 0 -10 5 -10 10
0 6 5 10 10 10 6 0 10 -4 10 -10z"/>
<path d="M1352 1598 c-16 -16 -15 -33 1 -47 21 -17 55 23 37 44 -15 18 -22 19
-38 3z"/>
<path d="M902 1455 l-84 -145 -102 0 c-66 0 -106 4 -114 12 -9 9 -12 9 -12 0
0 -9 -8 -8 -30 3 -33 17 -40 10 -12 -11 9 -7 14 -14 10 -14 -4 0 -19 11 -34
25 -15 14 -31 25 -35 25 -13 0 -11 -18 2 -25 7 -5 5 -11 -5 -18 -13 -10 -7
-25 39 -102 30 -49 53 -95 51 -101 -2 -6 3 -15 12 -21 10 -6 25 -26 35 -45
l19 -35 -81 -140 c-45 -77 -81 -145 -81 -151 0 -9 46 -12 169 -12 l168 0 40
-69 c27 -46 37 -73 31 -79 -13 -13 -2 -32 18 -32 11 0 13 -6 9 -20 -4 -12 -2
-20 6 -20 12 0 59 -49 59 -62 0 -19 19 -5 36 27 10 19 22 35 26 35 5 0 8 7 8
15 0 9 12 20 26 25 20 8 25 15 21 32 -4 14 6 44 29 85 l36 63 168 0 c93 0 171
4 174 8 2 4 -33 74 -80 155 l-84 147 30 48 c20 33 42 55 70 67 21 10 47 26 56
36 15 17 15 20 -4 47 -20 28 -20 29 -2 57 22 34 18 45 -17 45 -18 0 -36 11
-54 33 l-27 32 -66 -32 c-47 -23 -80 -33 -114 -33 l-47 0 -83 145 c-46 80 -87
145 -90 145 -4 0 -45 -65 -90 -145z m168 -13 c39 -68 69 -126 67 -128 -2 -3
-70 -3 -150 -2 l-146 3 67 115 c80 137 83 142 87 138 2 -2 35 -59 75 -126z
m310 -127 c0 -2 -13 -11 -30 -20 -38 -19 -40 -11 -2 9 31 17 32 18 32 11z
m-855 -43 c-3 -3 -11 0 -18 7 -9 10 -8 11 6 5 10 -3 15 -9 12 -12z m184 -13
c-22 -31 -23 -31 -30 -10 -8 19 -20 26 -41 22 -5 0 -8 4 -8 9 0 6 23 10 51 10
l50 0 -22 -31z m91 26 c0 -16 -75 -133 -82 -129 -15 9 -8 69 12 102 14 22 27
32 45 32 14 0 25 -2 25 -5z m439 -136 l81 -141 -82 -144 -83 -144 -165 0 -165
0 -82 142 -81 142 29 50 c19 33 34 50 45 48 12 -2 14 2 9 17 -4 13 8 44 37 95
l43 75 166 1 167 0 81 -141z m31 31 c30 -61 59 -110 65 -110 6 0 17 6 24 13 7
6 4 -3 -6 -20 -10 -18 -20 -33 -23 -33 -3 0 -22 30 -43 68 -20 37 -53 95 -73
130 -31 54 -33 62 -17 62 13 0 33 -31 73 -110z m210 101 c0 -5 -7 -14 -15 -21
-8 -7 -15 -10 -15 -7 0 3 -3 12 -6 21 -4 12 0 16 15 16 12 0 21 -4 21 -9z
m-899 -33 c17 -32 5 -30 -19 2 -16 21 -18 28 -7 24 9 -4 20 -15 26 -26z m706
10 c0 -7 3 -26 7 -43 6 -28 5 -27 -8 5 -17 42 -19 50 -8 50 5 0 9 -6 9 -12z
m194 -60 c15 -28 5 -21 -21 15 -15 20 -17 27 -6 18 9 -8 22 -23 27 -33z m-822
6 c3 -3 -4 -12 -14 -22 -11 -9 -16 -13 -12 -8 4 5 -1 18 -10 29 -17 19 -17 19
7 12 14 -4 27 -9 29 -11z m-76 -23 c31 -24 34 -31 24 -45 -11 -14 -15 -11 -39
29 -15 25 -26 45 -24 45 2 0 19 -13 39 -29z m772 -70 c-6 -5 -30 23 -46 54 -5
11 4 5 20 -14 17 -19 28 -37 26 -40z m84 45 c-2 -2 -15 -9 -29 -15 -24 -11
-24 -11 -6 3 16 13 49 24 35 12z m-729 -29 c0 -2 -13 -27 -29 -56 l-28 -53
-26 45 c-30 54 -22 67 40 67 24 0 43 -2 43 -3z m20 -275 c39 -68 69 -126 67
-128 -2 -3 -70 -3 -150 -2 l-146 3 60 105 c72 124 90 153 94 148 2 -1 35 -59
75 -126z m678 4 c40 -69 72 -127 72 -130 0 -3 -67 -6 -150 -6 -82 0 -150 2
-150 5 0 10 145 255 150 255 4 0 39 -56 78 -124z m-294 -206 c-29 -53 -54 -82
-54 -61 0 6 6 11 13 11 6 0 4 5 -6 11 -14 8 -16 14 -6 25 9 11 8 14 -5 14 -9
0 -16 6 -16 13 0 9 -16 14 -50 14 -27 1 -50 -2 -50 -7 0 -5 -7 -7 -16 -3 -14
5 -16 1 -12 -20 3 -15 1 -24 -3 -21 -13 8 -11 -10 4 -25 10 -11 9 -13 -2 -9
-8 2 -27 27 -44 56 l-29 52 152 0 151 0 -27 -50z m-84 -130 c11 -7 3 -10 -30
-9 -34 0 -40 2 -25 9 27 12 37 12 55 0z m-30 -70 c0 -5 -4 -10 -10 -10 -5 0
-10 5 -10 10 0 6 5 10 10 10 6 0 10 -4 10 -10z"/>
<path d="M960 1464 c0 -4 8 -13 18 -20 16 -13 16 -13 0 -14 -10 0 -18 -8 -18
-18 0 -19 59 -76 69 -66 3 3 -1 11 -9 17 -16 12 -15 44 1 62 15 15 10 25 -10
25 -11 0 -23 5 -26 10 -7 11 -25 14 -25 4z m27 -66 c-3 -8 -6 -5 -6 6 -1 11 2
17 5 13 3 -3 4 -12 1 -19z"/>
<path d="M961 1156 c-10 -12 -8 -17 7 -25 15 -8 23 -7 33 5 10 13 10 17 -2 25
-19 12 -25 11 -38 -5z"/>
<path d="M1015 1130 c-22 -24 -43 -25 -73 -4 -38 26 -36 8 1 -20 37 -28 72
-33 100 -12 20 16 22 30 4 45 -11 8 -18 6 -32 -9z"/>
<path d="M871 1099 c-46 -18 -54 -30 -35 -50 16 -18 17 -18 42 1 33 27 72 27
72 0 0 -11 -9 -29 -20 -40 -11 -11 -29 -20 -40 -20 -11 0 -20 -6 -20 -12 0
-27 17 -38 51 -36 30 3 34 0 37 -23 4 -31 -18 -52 -53 -51 -33 0 -58 22 -80
72 -10 22 -22 40 -27 40 -12 0 -10 -6 12 -49 38 -76 84 -108 144 -102 56 5 74
75 31 115 -34 32 -31 41 5 15 23 -17 32 -20 43 -10 12 9 16 6 20 -18 9 -41 41
-57 73 -37 29 20 38 52 32 117 -4 34 -13 58 -29 75 -36 38 -59 28 -95 -41 -36
-71 -58 -78 -61 -20 -2 29 -9 46 -28 63 -29 24 -38 26 -74 11z m259 -83 c0
-57 -17 -83 -46 -72 -21 8 -14 74 11 112 23 35 35 21 35 -40z"/>
<path d="M640 855 c-7 -8 -20 -15 -29 -15 -23 0 -26 -76 -4 -84 11 -5 14 -1 9
11 -5 16 -5 16 8 -1 20 -25 39 -10 34 25 -3 16 -1 29 4 29 4 0 8 -13 8 -30 0
-16 5 -30 10 -30 6 0 10 13 10 29 0 16 3 37 7 47 5 14 2 16 -23 11 -16 -3 -23
-4 -16 -1 14 6 16 24 3 24 -5 0 -14 -7 -21 -15z"/>
<path d="M1320 856 c0 -9 -7 -16 -15 -16 -26 0 -19 -57 10 -76 31 -20 39 -15
26 19 -7 17 -7 28 -1 32 6 4 10 -5 10 -19 0 -43 18 -29 22 17 3 23 4 43 4 44
-1 1 -13 4 -29 8 -21 6 -27 4 -27 -9z"/>
<path d="M1394 1559 c-16 -18 -17 -21 -1 -36 15 -16 18 -15 42 7 14 13 25 28
25 34 0 19 -48 15 -66 -5z m36 -8 c0 -12 -20 -25 -27 -18 -7 7 6 27 18 27 5 0
9 -4 9 -9z"/>
<path d="M503 1536 c3 -7 0 -19 -6 -25 -8 -8 -6 -16 8 -31 26 -28 41 -25 21 5
-9 14 -12 25 -7 25 6 0 14 -8 20 -17 5 -10 13 -14 17 -10 4 4 2 13 -4 19 -20
20 -13 32 8 13 22 -20 26 -14 10 16 -12 22 -36 25 -43 7 -4 -10 -6 -10 -6 0
-1 6 -6 12 -12 12 -6 0 -9 -6 -6 -14z"/>
<path d="M1431 1514 c-18 -20 -20 -28 -10 -40 16 -20 32 -17 57 9 22 23 22 24
4 40 -24 22 -24 22 -51 -9z m39 -3 c0 -6 -4 -13 -10 -16 -5 -3 -10 1 -10 9 0
9 5 16 10 16 6 0 10 -4 10 -9z"/>
<path d="M1485 1480 c-15 -16 -15 -22 -5 -35 7 -8 16 -15 21 -15 15 0 38 31
33 45 -9 23 -31 25 -49 5z"/>
<path d="M460 1475 c-9 -11 -8 -19 9 -37 20 -21 22 -21 38 -5 16 15 15 18 -2
37 -22 24 -29 25 -45 5z"/>
<path d="M422 1428 c-9 -9 -8 -16 6 -31 17 -20 17 -20 -11 -2 -24 16 -30 16
-38 4 -12 -19 -11 -26 2 -35 6 -3 16 0 21 7 8 11 8 10 4 -4 -3 -10 -6 -21 -6
-23 0 -3 -9 0 -21 6 -11 7 -22 10 -23 8 -1 -2 -8 -12 -16 -22 -14 -18 -13 -19
3 -13 10 4 16 3 12 -3 -3 -5 3 -14 14 -19 33 -18 45 -12 20 9 -24 19 -16 28
10 11 10 -7 20 -3 31 12 23 29 34 67 21 67 -6 0 -11 7 -11 17 0 15 1 15 18 0
26 -24 39 -21 17 3 -21 23 -36 25 -53 8z"/>
<path d="M1543 1415 c-15 -13 -22 -25 -15 -25 6 0 12 -7 12 -15 0 -23 27 -29
45 -12 27 28 9 61 -21 36 -8 -6 -17 -10 -19 -7 -3 3 6 11 20 18 14 7 25 17 25
22 0 15 -18 8 -47 -17z"/>
<path d="M1600 1320 c-25 -25 -25 -35 -2 -58 9 -9 16 -25 14 -35 -2 -9 3 -19
10 -22 10 -4 13 -16 10 -37 l-5 -31 39 8 c22 4 41 9 43 11 2 2 -7 15 -22 28
-17 15 -22 27 -16 33 12 12 -17 46 -31 38 -4 -3 -6 3 -3 14 3 10 0 22 -6 25
-6 4 -11 0 -11 -10 0 -14 -3 -15 -12 -6 -8 8 -8 15 2 27 17 21 33 14 41 -16 5
-21 7 -22 14 -6 5 12 1 25 -10 37 -23 25 -30 25 -55 0z m51 -103 c-13 -13 -26
-3 -16 12 3 6 11 8 17 5 6 -4 6 -10 -1 -17z m19 -47 c0 -5 -7 -10 -16 -10 -8
0 -12 5 -9 10 3 6 10 10 16 10 5 0 9 -4 9 -10z"/>
<path d="M320 1303 c0 -5 12 -14 28 -21 16 -7 18 -9 5 -6 -17 4 -23 -2 -33
-32 -10 -30 -10 -38 1 -45 19 -12 52 -11 44 1 -3 6 -13 10 -21 10 -8 0 -14 5
-14 10 0 6 10 8 24 4 25 -6 42 17 29 39 -4 7 1 6 10 -2 14 -11 17 -11 17 1 0
8 -17 20 -37 28 -21 8 -41 16 -45 18 -5 2 -8 0 -8 -5z"/>
<path d="M282 1188 c-24 -24 -13 -47 25 -57 40 -11 58 -5 30 10 -9 6 -15 15
-11 20 6 10 -13 39 -25 39 -4 0 -12 -5 -19 -12z m28 -17 c0 -6 -4 -13 -10 -16
-5 -3 -10 1 -10 9 0 9 5 16 10 16 6 0 10 -4 10 -9z"/>
<path d="M271 1091 c-37 -37 2 -86 49 -61 25 13 26 42 2 63 -23 21 -28 21 -51
-2z"/>
<path d="M1656 1084 c-40 -40 11 -92 53 -53 24 23 24 24 11 50 -13 23 -43 25
-64 3z"/>
<path d="M330 870 c0 -5 -9 -10 -20 -10 -11 0 -20 -5 -20 -11 0 -7 10 -9 25
-5 31 8 33 -9 3 -18 -22 -7 -22 -8 -4 -15 18 -7 18 -8 2 -14 -14 -6 -15 -11
-6 -28 7 -12 18 -18 26 -15 11 4 12 2 1 -16 -9 -16 -9 -22 1 -25 6 -3 9 -10 5
-16 -4 -7 0 -8 11 -4 10 4 21 7 26 7 4 0 8 11 8 25 0 13 -4 22 -8 20 -11 -7
-20 22 -13 42 5 12 2 15 -10 10 -14 -5 -16 -3 -8 11 10 20 3 72 -10 72 -5 0
-9 -4 -9 -10z"/>
<path d="M1639 838 c0 -2 -2 -14 -3 -26 -2 -13 -8 -27 -14 -30 -5 -4 -9 -22
-8 -40 1 -18 -4 -38 -11 -44 -9 -7 -13 -7 -13 0 0 6 5 12 12 14 9 3 9 6 1 11
-7 5 -17 -1 -23 -13 -14 -26 12 -39 38 -19 15 13 16 12 3 -4 -15 -19 -9 -33 8
-22 6 3 11 15 11 26 0 10 4 19 9 19 5 0 11 8 14 18 2 9 8 25 12 35 5 12 2 17
-9 17 -9 0 -16 4 -16 9 0 5 10 7 23 4 12 -3 19 -2 15 2 -4 5 -3 14 4 22 6 7 7
17 3 21 -4 4 -10 1 -12 -5 -3 -9 -10 -10 -24 -3 -10 6 -19 9 -20 8z"/>
<path d="M377 676 c-18 -14 -18 -17 13 -60 34 -50 41 -54 60 -31 10 13 9 19
-6 36 -10 11 -19 30 -19 42 0 26 -23 32 -48 13z m53 -50 c0 -3 -4 -8 -10 -11
-5 -3 -10 -1 -10 4 0 6 5 11 10 11 6 0 10 -2 10 -4z"/>
<path d="M1560 644 c-11 -12 -10 -17 6 -28 13 -10 23 -11 31 -4 18 15 16 26
-6 37 -14 8 -22 7 -31 -5z"/>
<path d="M1525 600 c-3 -6 -3 -20 0 -33 4 -13 3 -17 -2 -10 -10 15 -35 12 -57
-6 -15 -13 -15 -16 5 -37 28 -30 39 -22 13 8 l-19 23 23 -19 c17 -15 25 -17
34 -8 7 7 8 12 4 12 -5 0 3 9 18 21 14 11 26 24 26 29 0 15 -38 32 -45 20z"/>
<path d="M455 564 c-18 -13 -18 -15 -2 -31 16 -16 18 -16 34 0 15 15 15 19 3
31 -13 13 -18 13 -35 0z"/>
<path d="M504 519 c-18 -20 -18 -21 14 -50 18 -17 39 -28 47 -25 10 3 12 0 9
-12 -5 -14 -2 -13 10 3 16 19 17 19 14 -3 -2 -18 6 -29 40 -48 24 -13 47 -22
52 -19 4 3 10 -1 13 -7 3 -7 4 0 3 16 -3 33 -30 53 -50 37 -11 -9 -13 -5 -10
19 2 16 -1 30 -6 30 -6 0 -10 -5 -10 -10 0 -6 -12 1 -27 15 -16 14 -33 23 -40
21 -7 -3 -15 -1 -18 4 -9 15 -27 12 -19 -2 6 -10 4 -10 -7 0 -10 9 -10 15 -1
24 9 9 15 8 27 -8 11 -15 14 -16 15 -3 0 15 -18 39 -30 39 -4 0 -15 -9 -26
-21z"/>
<path d="M1424 487 c-13 -15 -27 -23 -42 -20 -22 3 -22 2 -6 -22 19 -29 -1
-36 -22 -8 -20 28 -28 8 -8 -21 15 -24 18 -25 38 -12 11 8 20 20 18 26 -2 8 3
10 13 7 9 -4 15 -1 15 8 0 9 6 12 15 9 21 -9 31 24 13 43 -14 13 -17 12 -34
-10z"/>
<path d="M1267 400 c-22 -21 -67 -32 -68 -16 -1 6 -5 0 -9 -14 -6 -18 -8 -20
-9 -7 -1 23 -29 19 -45 -5 -17 -27 17 -57 44 -40 11 6 29 12 40 12 12 0 18 4
15 10 -3 6 1 7 10 4 11 -5 18 0 22 15 5 20 6 21 20 4 14 -17 14 -17 8 2 -5 15
-3 17 6 8 13 -13 39 -7 39 9 0 6 -7 8 -14 5 -9 -4 -17 2 -21 14 -8 23 -15 23
-38 -1z m-101 -49 c-4 -5 0 -12 6 -14 8 -3 6 -6 -4 -6 -10 -1 -18 6 -18 14 0
8 5 15 11 15 5 0 8 -4 5 -9z"/>
<path d="M748 394 c-11 -10 -10 -64 0 -64 4 0 13 5 20 12 9 9 12 8 12 -5 0
-20 16 -23 23 -4 3 7 6 4 6 -7 1 -13 6 -17 21 -13 11 3 20 2 20 -3 0 -14 55
-5 61 10 8 21 -11 35 -51 36 -19 1 -36 7 -38 13 -3 9 -7 9 -18 0 -11 -9 -14
-8 -14 6 0 14 -3 15 -14 6 -11 -10 -15 -9 -18 4 -1 9 -6 13 -10 9z"/>
<path d="M939 340 c-1 -11 -2 -26 -3 -32 -1 -9 17 -13 57 -14 54 -2 57 -1 57
22 0 28 -24 32 -40 7 -10 -16 -11 -16 -6 -1 5 18 -19 32 -36 21 -7 -3 -8 -1
-4 5 4 7 1 12 -8 12 -9 0 -17 -9 -17 -20z"/>
<path d="M1074 335 c-7 -17 2 -45 13 -45 21 1 35 19 28 39 -7 24 -33 28 -41 6z"/>
<path d="M1490 1730 c-8 -5 -11 -10 -7 -10 4 0 3 -9 -3 -20 -9 -17 -6 -25 21
-47 17 -15 38 -33 45 -41 12 -12 17 -10 34 10 l19 23 1 -37 c0 -21 5 -38 10
-38 6 0 10 4 10 9 0 14 25 20 41 10 11 -8 10 -13 -8 -28 -24 -20 -30 -41 -13
-41 6 0 10 3 10 8 0 4 10 13 21 21 18 11 23 11 30 0 4 -8 11 -10 15 -6 9 9
-46 68 -57 61 -5 -3 -6 2 -3 10 8 21 -6 20 -22 -1 -12 -16 -13 -15 -14 13 0
41 -9 48 -34 25 -16 -14 -27 -17 -43 -10 -13 4 -23 12 -23 16 1 17 29 45 39
38 17 -10 13 -28 -4 -21 -17 6 -21 -9 -5 -19 9 -6 40 17 40 29 0 3 -11 13 -25
22 -24 16 -26 15 -46 -10 -29 -37 -37 -25 -9 13 22 31 12 42 -20 21z"/>
<path d="M319 1597 c-15 -17 -27 -35 -28 -40 0 -4 -13 -18 -28 -32 -27 -22
-27 -25 -11 -41 17 -17 18 -17 38 1 11 10 23 16 26 12 9 -9 -5 -27 -22 -27 -8
0 -14 -4 -14 -9 0 -5 -17 -15 -37 -21 -41 -13 -66 -30 -45 -30 7 0 22 -9 34
-19 l20 -20 -21 6 c-12 3 -24 9 -27 14 -8 14 -24 11 -24 -4 0 -7 16 -19 36
-26 30 -11 38 -11 45 0 13 22 11 30 -11 36 -25 7 -26 23 -2 23 26 0 82 49 82
72 0 27 -27 34 -50 13 -12 -11 -20 -13 -20 -6 0 6 7 14 15 17 8 3 17 14 20 25
8 23 23 24 47 2 10 -9 21 -13 25 -9 4 4 -3 15 -15 25 -15 11 -21 23 -16 34 8
22 13 21 41 -5 13 -12 26 -18 30 -14 6 6 -44 55 -57 55 -3 0 -17 -14 -31 -32z"/>
<path d="M220 1471 c0 -5 7 -12 16 -15 24 -9 28 -7 14 9 -14 17 -30 20 -30 6z"/>
<path d="M1680 1465 c0 -18 1 -18 36 -5 27 10 27 10 10 -14 -18 -29 -19 -36
-7 -55 7 -11 13 -10 36 5 l27 17 -16 -38 c-9 -21 -15 -40 -12 -42 6 -6 76 30
76 39 0 13 -12 9 -33 -9 -20 -17 -20 -17 -12 2 12 32 18 65 11 65 -4 0 -20 -7
-36 -15 -35 -18 -38 -10 -10 25 28 36 25 40 -25 40 -33 0 -45 -4 -45 -15z"/>
<path d="M1795 1333 c-30 -7 -38 -19 -30 -42 14 -46 85 -47 85 -1 0 45 -11 54
-55 43z m35 -34 c0 -15 -5 -20 -22 -17 -27 4 -35 25 -11 31 31 8 33 7 33 -14z"/>
<path d="M168 1301 l-27 -6 30 -33 c29 -32 55 -39 30 -8 -15 18 -6 37 14 29 9
-3 15 1 15 11 0 17 -15 18 -62 7z"/>
<path d="M123 1220 c-21 -33 -15 -47 25 -59 l37 -11 -37 5 c-21 2 -40 -1 -43
-6 -4 -5 6 -9 21 -9 l27 0 -27 -21 c-34 -27 -33 -39 4 -39 17 0 30 -4 30 -9 0
-5 -13 -14 -30 -21 -33 -14 -42 -35 -11 -27 13 3 18 0 15 -7 -3 -7 5 -18 18
-24 21 -10 20 -11 -14 -11 -21 -1 -38 -6 -38 -12 0 -7 9 -9 21 -6 l21 6 -21
-23 c-19 -20 -28 -46 -16 -46 3 0 20 17 40 38 36 39 45 72 20 72 -8 0 -15 7
-15 15 0 8 7 15 15 15 9 0 15 9 15 25 0 21 -5 25 -27 25 l-27 0 31 29 c54 50
55 112 2 119 -15 2 -28 -4 -36 -18z m60 -14 c3 -8 3 -17 0 -20 -16 -16 -60 5
-49 23 10 16 43 14 49 -3z"/>
<path d="M1854 1213 c1 -13 -7 -19 -26 -21 -16 -2 -28 -9 -28 -18 0 -17 -3
-16 38 -5 25 8 32 7 32 -5 0 -8 5 -14 11 -14 10 0 4 52 -8 73 -8 14 -21 7 -19
-10z"/>
<path d="M1832 1133 c-19 -4 -23 -10 -20 -36 2 -17 8 -32 14 -34 7 -2 10 6 7
22 -3 15 -1 25 6 25 6 0 11 -7 11 -15 0 -8 5 -15 11 -15 6 0 8 9 4 20 -4 11
-2 20 4 20 6 0 11 -12 11 -27 0 -20 3 -24 11 -16 7 7 9 23 5 37 -6 26 -14 28
-64 19z"/>
<path d="M1826 1044 c-10 -10 -14 -23 -10 -33 4 -9 6 -26 5 -38 0 -14 5 -23
14 -23 8 0 15 -7 15 -16 0 -11 -6 -14 -20 -9 -17 5 -20 2 -20 -24 0 -26 4 -31
25 -31 31 0 33 17 3 23 -13 2 -4 5 20 6 23 0 42 6 42 11 0 6 -7 10 -15 10 -8
0 -15 7 -15 15 0 8 7 15 15 15 8 0 15 5 15 10 0 6 -15 10 -33 10 -30 0 -33 2
-32 33 0 27 4 32 25 32 22 0 25 -4 23 -30 -2 -28 -1 -29 12 -11 31 41 -33 86
-69 50z"/>
<path d="M153 922 c-13 -2 -23 -7 -23 -12 0 -4 10 -6 23 -3 19 4 17 0 -12 -26
-34 -30 -38 -57 -4 -30 13 11 15 11 9 1 -5 -9 -1 -15 13 -19 27 -7 21 -29 -6
-25 -25 4 -36 -20 -23 -53 8 -22 12 -24 36 -15 37 14 42 5 13 -26 -20 -21 -21
-27 -9 -34 8 -5 26 -10 39 -10 17 0 22 -4 17 -16 -3 -9 -6 -18 -6 -20 0 -2
-12 -1 -26 2 -19 5 -25 4 -20 -5 4 -6 16 -11 28 -11 17 0 18 -2 8 -15 -20 -24
-7 -27 35 -6 23 11 33 21 26 25 -6 4 -15 5 -20 2 -5 -3 -8 9 -7 27 1 30 -1 32
-31 32 l-32 0 20 21 c26 28 18 74 -12 67 -22 -6 -26 15 -4 23 19 8 20 44 1 44
-24 0 -30 22 -11 36 25 18 9 51 -22 46z m7 -153 c0 -5 -4 -9 -10 -9 -5 0 -10
7 -10 16 0 8 5 12 10 9 6 -3 10 -10 10 -16z"/>
<path d="M1836 852 c-28 -19 -35 -28 -23 -30 17 -3 77 36 77 50 0 13 -13 8
-54 -20z"/>
<path d="M1846 821 c-3 -5 3 -11 14 -14 13 -3 20 0 20 9 0 15 -26 19 -34 5z"/>
<path d="M1796 794 c-30 -29 -10 -74 33 -74 14 0 41 29 41 45 0 18 -27 45 -45
45 -7 0 -21 -7 -29 -16z m43 -13 c17 -11 7 -41 -13 -41 -19 0 -29 17 -22 35 6
17 15 18 35 6z"/>
<path d="M1760 704 c-13 -32 -13 -44 0 -44 6 0 10 9 10 20 0 23 12 25 42 9 12
-7 24 -7 29 -2 6 6 -6 16 -31 26 -41 16 -41 16 -50 -9z"/>
<path d="M1726 628 c-31 -44 32 -91 66 -48 22 27 22 34 2 54 -22 22 -50 20
-68 -6z m59 -22 c0 -25 -16 -30 -39 -13 -24 17 -12 39 17 35 14 -2 22 -10 22
-22z"/>
<path d="M240 580 c-19 -11 -30 -20 -25 -21 6 -1 15 -3 20 -4 6 -2 16 -3 22
-4 10 -1 10 -7 1 -26 -14 -31 -4 -43 17 -21 9 9 13 16 10 16 -4 0 0 12 10 26
l17 27 -28 -7 c-26 -6 -27 -5 -11 7 18 15 22 27 10 27 -5 -1 -24 -9 -43 -20z"/>
<path d="M1682 558 c-16 -16 -15 -43 2 -57 11 -9 16 -9 22 0 4 6 0 16 -10 21
-20 11 -12 28 15 28 30 0 35 -28 9 -52 -16 -15 -30 -19 -56 -15 -19 3 -34 2
-34 -4 0 -5 4 -9 9 -9 5 0 14 -13 20 -30 12 -37 26 -40 17 -4 -6 21 -4 25 12
22 21 -3 72 50 72 76 0 29 -55 47 -78 24z"/>
<path d="M300 535 c-14 -16 -3 -20 19 -6 8 5 9 11 3 15 -5 3 -15 -1 -22 -9z"/>
<path d="M292 498 c-28 -28 -3 -72 39 -66 30 4 47 33 33 56 -14 21 -55 27 -72
10z m53 -24 c0 -12 -8 -20 -22 -22 -17 -3 -23 2 -23 16 0 20 16 33 35 28 6 -2
10 -11 10 -22z"/>
<path d="M530 285 c-19 -23 -4 -65 23 -65 41 0 59 26 43 63 -10 21 -49 22 -66
2z"/>
<path d="M1383 275 c-40 -28 -3 -87 42 -67 28 13 33 45 11 68 -18 18 -26 18
-53 -1z"/>
<path d="M712 193 c-13 -43 -8 -55 13 -27 8 10 15 14 15 7 0 -14 28 -43 40
-43 5 0 11 8 14 18 2 9 7 27 11 40 4 12 2 22 -4 22 -5 0 -13 -16 -17 -36 -4
-23 -9 -31 -14 -23 -5 7 -3 20 3 30 13 21 4 33 -29 43 -17 5 -22 0 -32 -31z
m43 7 c3 -5 -1 -10 -10 -10 -9 0 -13 5 -10 10 3 6 8 10 10 10 2 0 7 -4 10 -10z"/>
<path d="M1203 196 c3 -8 0 -17 -8 -20 -7 -2 -16 2 -19 10 -4 10 -13 13 -29 9
-13 -4 -47 -7 -74 -8 -28 -2 -58 -9 -68 -17 -14 -12 -18 -12 -26 1 -6 9 -9 0
-9 -31 1 -40 2 -43 14 -27 12 15 15 16 26 2 18 -21 24 -11 10 15 -9 16 -9 25
-1 33 8 8 11 4 11 -13 0 -41 14 -54 46 -45 16 4 40 8 54 9 33 1 35 40 2 44
-12 2 -20 8 -16 13 3 5 10 6 16 3 6 -4 14 -1 18 6 5 7 10 -2 14 -24 4 -20 12
-36 18 -36 6 0 8 9 5 20 -6 25 18 27 31 4 5 -9 11 -13 14 -8 8 14 -11 74 -23
74 -6 0 -9 -6 -6 -14z m-105 -39 c6 -7 8 -17 4 -22 -10 -14 -52 -18 -52 -6 0
6 9 11 20 11 11 0 20 5 20 11 0 6 -9 9 -20 6 -11 -3 -20 -1 -20 4 0 14 36 11
48 -4z"/>
<path d="M817 194 c-13 -14 -7 -33 13 -39 11 -4 18 -11 14 -16 -4 -6 -11 -6
-20 2 -16 13 -30 6 -19 -10 3 -6 17 -11 31 -11 29 0 34 33 7 50 -15 9 -14 10
6 4 17 -4 22 -2 19 7 -5 15 -40 24 -51 13z"/>
<path d="M877 177 c-4 -10 -7 -31 -7 -45 1 -25 2 -25 14 -9 16 21 38 23 30 2
-4 -8 -2 -15 4 -15 6 0 13 6 15 13 4 10 6 10 6 0 2 -30 21 -10 21 22 0 28 -4
35 -20 35 -11 0 -20 -4 -20 -10 0 -17 -28 -11 -32 8 -3 16 -4 16 -11 -1z"/>
</g>
</svg>
